PathFileType	4	(X/Y/Z)	C:\Users\Willi\SynologyDrive\Deimel_MSc_Deadlift\Athlete_03\Athlete_3_22_07_06\dl_85\marker_experimental.trc
DataRate	CameraRate	NumFrames	NumMarkers	Units	OrigDataRate	OrigDataStartFrame	OrigNumFrames
200.000000	200.000000	4	59	mm	200.000000	1397	1597
Frame#	Time	BR			GLAB			RFHD			LFHD			C7			T6			SPINMOL			SPINM2			SPINM3			BELTOL			BELT2			BELT3			SACROL			SACR2			SACR3			LTHOL			LTH2			LTH3			LSHAOL			LSHA2			LSHA3			LHEE			LTOE			LM5			RTHOL			RTH2			RTH3			RSHAOL			RSHA2			RSHA3			RHEE			RTOE			RM5			STRN			XIPH			LACR			LUAOL			LUA3			LLAOL			LLA2			LLA3			LWRU			RACR			RUAOL			RUA2			RUA3			RLAOL			RLA2			RLA3			RWRU			LUA2			BL			T12			USERMO0			USERMO1			USERMO2			USERMO3			USERMO4			USERMO5			
		X1	Y1	Z1	X2	Y2	Z2	X3	Y3	Z3	X4	Y4	Z4	X5	Y5	Z5	X6	Y6	Z6	X7	Y7	Z7	X8	Y8	Z8	X9	Y9	Z9	X10	Y10	Z10	X11	Y11	Z11	X12	Y12	Z12	X13	Y13	Z13	X14	Y14	Z14	X15	Y15	Z15	X16	Y16	Z16	X17	Y17	Z17	X18	Y18	Z18	X19	Y19	Z19	X20	Y20	Z20	X21	Y21	Z21	X22	Y22	Z22	X23	Y23	Z23	X24	Y24	Z24	X25	Y25	Z25	X26	Y26	Z26	X27	Y27	Z27	X28	Y28	Z28	X29	Y29	Z29	X30	Y30	Z30	X31	Y31	Z31	X32	Y32	Z32	X33	Y33	Z33	X34	Y34	Z34	X35	Y35	Z35	X36	Y36	Z36	X37	Y37	Z37	X38	Y38	Z38	X39	Y39	Z39	X40	Y40	Z40	X41	Y41	Z41	X42	Y42	Z42	X43	Y43	Z43	X44	Y44	Z44	X45	Y45	Z45	X46	Y46	Z46	X47	Y47	Z47	X48	Y48	Z48	X49	Y49	Z49	X50	Y50	Z50	X51	Y51	Z51	X52	Y52	Z52	X53	Y53	Z53	X54	Y54	Z54	X55	Y55	Z55	X56	Y56	Z56	X57	Y57	Z57	X58	Y58	Z58	X59	Y59	Z59	

1398	6.985	255.489990234375	250.9897155761719	-105.1598892211914	441.1858825683594	1543.666625976562	-1198.986938476562	381.8572692871094	1565.28173828125	-1122.668090820312	383.2008666992188	1565.747924804688	-1279.625732421875	196.1558837890625	1454.078369140625	-1202.194458007812	88.72377014160156	1283.678344726562	-1211.65283203125	74.66741180419922	1259.322998046875	-1215.016479492188	48.24514007568359	1206.080810546875	-1161.718627929688	53.52768325805664	1201.36083984375	-1210.759399414062	6.581634044647217	1127.754150390625	-1212.043823242188	-8.151555061340332	1069.944946289062	-1159.082763671875	-14.82441425323486	1069.471801757812	-1208.705932617188	-20.15656852722168	1008.738708496094	-1230.00927734375	-10.37930774688721	1018.002197265625	-1180.717163085938	-47.65871047973633	964.2257080078126	-1189.844360351562	113.5354461669922	755.8832397460939	-1433.25927734375	80.06455993652344	685.5792846679689	-1414.474365234375	126.2380676269531	695.2073364257814	-1432.394165039062	117.1077041625977	350.2109985351564	-1448.582275390625	74.24704742431641	284.1563110351564	-1443.281372070312	123.4939117431641	288.6485290527345	-1447.849487304688	39.24209594726562	66.53896331787118	-1373.270385742188	248.9729461669922	74.97603607177743	-1377.468872070312	207.1262817382812	54.08877182006845	-1484.733520507812	118.1491088867188	726.4574584960939	-993.5678100585938	168.6339569091797	665.8927001953126	-980.17138671875	120.9789047241211	664.1832885742189	-995.7416381835938	101.1772689819336	344.5136108398438	-977.4266967773438	140.6322174072266	275.6002807617188	-973.9288330078125	92.19093322753906	284.1477355957032	-983.8696899414062	44.57635879516602	64.98028564453132	-1069.720336914062	252.5180053710938	68.25991821289068	-1040.758422851562	201.3302154541016	68.04852294921881	-944.9554443359375	319.1371765136719	1334.60302734375	-1213.5234375	317.4844360351562	1174.521362304688	-1215.474365234375	254.5012664794922	1370.193237304688	-1421.404418945312	264.8136596679688	1218.353881835938	-1489.192504882812	299.7003173828125	1161.785522460938	-1488.834838867188	369.7858276367188	954.7843017578126	-1479.71337890625	378.6524047851562	890.1929931640626	-1473.264526367188	411.9712524414062	917.9590454101564	-1448.22265625	434.2041320800781	820.9307861328126	-1438.52294921875	275.4314575195312	1358.44287109375	-1005.786315917969	312.0465698242188	1181.50341796875	-962.5454711914061	345.9681396484375	1130.835693359375	-988.4725952148436	322.7530517578125	1117.60400390625	-945.8292846679686	396.919189453125	941.7665405273439	-961.8038330078124	433.6173706054688	903.2116699218751	-999.61474609375	412.9246826171875	878.8283691406251	-959.9381103515625	434.4798278808594	806.0329589843751	-975.8272094726562	250.4225006103516	1154.940063476562	-1502.346313476562	205.3321228027344	250.3358154296876	-2327.601806640625	48.5570182800293	1159.322631835938	-1211.142700195312	0.03172510117292404	0.01146680023521185	-0.02262879908084869	0.06766510009765625	0.07413300126791	-0.07612460106611252	0.03401060029864311	0.007283830083906651	-0.0197755005210638	0.02782600000500679	1.955080032348633	-2.101690053939819	2.030930042266846	3.002180099487305	-1.841840028762817	2.833839893341064	0	0	
1399	6.99	255.4366302490234	250.9861602783203	-105.1642684936523	439.0010070800781	1546.417114257812	-1198.648559570312	379.508056640625	1567.583984375	-1122.286743164062	380.877197265625	1568.136474609375	-1279.274169921875	194.599853515625	1455.138427734375	-1201.934448242188	88.33652496337891	1283.985473632812	-1211.445434570312	74.45693206787109	1259.537109375	-1214.822021484375	48.3851318359375	1206.098754882812	-1161.52490234375	53.7501335144043	1201.424926757812	-1210.571899414062	7.400201797485352	1127.70263671875	-1211.871215820312	-7.048904418945312	1069.802001953125	-1158.931640625	-13.711669921875	1069.31103515625	-1208.554443359375	-18.72271156311035	1008.814758300781	-1229.8798828125	-8.964584350585938	1018.094543457031	-1180.604614257812	-46.20829010009766	964.2903442382814	-1189.732421875	114.6318435668945	756.2157592773439	-1432.987060546875	80.832275390625	686.0836791992189	-1414.15283203125	127.044548034668	695.4797363281251	-1432.093627929688	116.9319610595703	350.3282470703126	-1448.282958984375	74.10236358642578	284.251190185547	-1443.016723632812	123.34326171875	288.769256591797	-1447.6259765625	39.25719833374023	66.54227447509774	-1373.248291015625	248.9761810302734	74.97045898437509	-1377.461059570312	207.12548828125	54.09420013427744	-1484.725830078125	118.970085144043	726.7630004882814	-993.6334838867188	169.0610961914062	665.9041748046876	-980.0986328125	121.4684906005859	664.4792480468751	-995.8865356445312	101.0193023681641	344.5767822265626	-977.5460815429688	140.5039978027344	275.6839294433594	-973.9782104492188	92.06581115722656	284.2029113769532	-983.954345703125	44.58376693725586	64.98870849609382	-1069.724853515625	252.5213165283203	68.25871276855474	-1040.756225585938	201.3291778564453	68.03900146484381	-944.95166015625	318.3682556152344	1336.476440429688	-1213.280639648438	317.7574462890625	1176.373168945312	-1215.309692382812	253.1953125	1371.754638671875	-1421.207885742188	263.8388061523438	1219.985229492188	-1489.111206054688	298.885009765625	1163.52099609375	-1488.910888671875	369.5151062011719	956.6622314453126	-1479.929565429688	378.5065612792969	892.0831909179689	-1473.546997070312	411.7835998535156	919.8849487304689	-1448.485229492188	434.2060852050781	822.8956298828126	-1438.876342773438	274.2302551269531	1360.008056640625	-1005.418884277344	311.2962341308594	1183.10302734375	-962.0088500976561	345.4193115234375	1132.50927734375	-987.8220214843749	322.0789489746094	1119.221069335938	-945.2572021484374	396.6663818359375	943.5433349609376	-961.2158203124999	433.4236145019531	905.0397949218751	-999.0211791992188	412.8008422851562	880.6476440429689	-959.3129272460938	434.4769287109375	807.8803710937501	-975.2185668945312	249.57666015625	1156.555297851562	-1502.272094726562	205.2682952880859	250.3354797363283	-2327.600341796875	49.06566619873047	1159.389282226562	-1210.939208984375	0.03184600174427032	0.01167779974639416	-0.02096579968929291	0.07081899791955948	0.07413530349731445	-0.07558999955654144	0.03445670008659363	0.007771050091832877	-0.01844269968569279	0.02950770035386086	1.971220016479492	-2.101099967956543	2.031860113143921	3.001699924468994	-1.826089978218078	2.835220098495483	0	0	
1400	6.995	255.3832855224609	250.98291015625	-105.1689529418945	436.8199768066406	1549.10302734375	-1198.307250976562	377.1690673828125	1569.823974609375	-1121.901733398438	378.5648498535156	1570.465209960938	-1278.921630859375	193.05419921875	1456.155883789062	-1201.675659179688	87.95214080810547	1284.26513671875	-1211.239868164062	74.25022125244141	1259.724365234375	-1214.63037109375	48.52653121948242	1206.091552734375	-1161.332885742188	53.98063278198242	1201.462890625	-1210.388671875	8.218234062194824	1127.631225585938	-1211.702392578125	-5.949119091033936	1069.640747070312	-1158.7841796875	-12.59953689575195	1069.1318359375	-1208.406982421875	-17.29312324523926	1008.874938964844	-1229.755859375	-7.554932594299316	1018.169860839844	-1180.49560546875	-44.76319885253906	964.3391113281251	-1189.62646484375	115.7381362915039	756.5408935546876	-1432.71826171875	81.61042785644531	686.5809936523439	-1413.83984375	127.8617782592773	695.7465209960939	-1431.796630859375	116.764045715332	350.4439392089845	-1447.985961914062	73.96372985839844	284.3458557128907	-1442.753540039062	123.1985321044922	288.8883666992189	-1447.403442382812	39.27448654174805	66.54395294189462	-1373.225952148438	248.9794006347656	74.9646759033204	-1377.453247070312	207.12451171875	54.09963226318369	-1484.718139648438	119.7943572998047	727.0592651367189	-993.6967163085938	169.4920349121094	665.9119873046876	-980.02099609375	121.9642181396484	664.7681274414064	-996.0263061523438	100.8701400756836	344.6395568847657	-977.6655883789062	140.3821716308594	275.7662353515626	-974.02734375	91.94767761230469	284.2580566406251	-984.0401000976562	44.59204483032227	64.99784088134773	-1069.72998046875	252.5248565673828	68.25666046142584	-1040.75439453125	201.3280639648438	68.02989196777349	-944.9481201171875	317.5982666015625	1338.306030273438	-1213.0400390625	318.0120544433594	1178.185546875	-1215.14306640625	251.8887939453125	1373.268798828125	-1421.013061523438	262.8573303222656	1221.569702148438	-1489.025512695312	298.0623168945312	1165.211303710938	-1488.989135742188	369.2401428222656	958.4968872070314	-1480.169677734375	378.3461303710938	893.9259033203126	-1473.852172851562	411.5837707519531	921.7579956054689	-1448.769165039062	434.1885986328125	824.8054809570314	-1439.263549804688	273.0327453613281	1361.529052734375	-1005.054321289062	310.5516052246094	1184.661865234375	-961.4776611328124	344.8714904785156	1134.14111328125	-987.1779785156249	321.4096374511719	1120.797119140625	-944.6909790039061	396.4054260253906	945.2722778320314	-960.6217041015624	433.2194519042969	906.8139648437501	-998.4177856445312	412.6639709472656	882.4165039062501	-958.676025390625	434.4522399902344	809.6747436523439	-974.5913696289062	248.7241973876953	1158.125	-1502.196899414062	205.2046203613281	250.3353424072267	-2327.59912109375	49.57402038574219	1159.43505859375	-1210.73681640625	0.03201489895582199	0.01189349964261055	-0.0193594004958868	0.07380930334329605	0.07409369945526123	-0.07497979700565338	0.0349700003862381	0.008339749649167063	-0.01711099967360497	0.03106959909200668	1.981430053710938	-2.100660085678101	2.032469987869263	3.001179933547974	-1.811190009117126	2.836669921875	0	0	
1401	7	255.3297576904297	250.9802398681641	-105.1736145019531	434.6431274414062	1551.725952148438	-1197.962890625	374.8400573730469	1572.002319335938	-1121.514892578125	376.263671875	1572.735107421875	-1278.568115234375	191.5181579589844	1457.13134765625	-1201.417724609375	87.57046508789062	1284.517578125	-1211.03662109375	74.04697418212891	1259.885009765625	-1214.442016601562	48.66976928710938	1206.05859375	-1161.143310546875	54.21795272827148	1201.475952148438	-1210.210083007812	9.035331726074219	1127.53955078125	-1211.537231445312	-4.852149963378906	1069.460693359375	-1158.640258789062	-11.48812770843506	1068.933837890625	-1208.263549804688	-15.86761665344238	1008.919616699219	-1229.637084960938	-6.15029764175415	1018.2275390625	-1180.3896484375	-43.32329177856445	964.3716430664064	-1189.5263671875	116.8531341552734	756.8584594726564	-1432.453125	82.39810943603516	687.0708618164064	-1413.535888671875	128.6886596679688	696.0074462890626	-1431.50390625	116.6045074462891	350.558074951172	-1447.691772460938	73.83155059814453	284.4402770996095	-1442.4921875	123.0602264404297	289.0057983398439	-1447.18212890625	39.2942008972168	66.5438766479493	-1373.203491210938	248.9826049804688	74.95875549316415	-1377.44580078125	207.1233062744141	54.10499191284189	-1484.71044921875	120.6229858398438	727.3466186523439	-993.7570190429688	169.9280700683594	665.9163208007814	-979.9390869140625	122.4670715332031	665.0501708984376	-996.1604614257812	100.7303924560547	344.7017517089844	-977.7849731445312	140.2674407958984	275.8469238281251	-974.0762939453125	91.83702087402344	284.3130493164063	-984.1265869140625	44.60126495361328	65.00773620605476	-1069.735717773438	252.5287017822266	68.25364685058599	-1040.753051757812	201.3267822265625	68.02128601074224	-944.94482421875	316.8269653320312	1340.092651367188	-1212.801513671875	318.2471008300781	1179.95849609375	-1214.973022460938	250.5820770263672	1374.736450195312	-1420.820190429688	261.869140625	1223.107177734375	-1488.937744140625	297.2326049804688	1166.8564453125	-1489.070068359375	368.9604187011719	960.2878417968751	-1480.43310546875	378.1704711914062	895.7206420898439	-1474.179321289062	411.3712768554688	923.5779418945314	-1449.074584960938	434.1511535644531	826.6599121093751	-1439.684204101562	271.8392333984375	1363.006103515625	-1004.69287109375	309.8124694824219	1186.179931640625	-960.9521484374999	344.3245544433594	1135.7314453125	-986.5411987304686	320.744873046875	1122.332641601562	-944.1307983398436	396.1361694335938	946.9533691406251	-960.0218505859374	433.0053100585938	908.5344848632814	-997.8046264648438	412.5129089355469	884.1349487304689	-958.0284423828125	434.4058227539062	811.4161376953126	-973.9454956054688	247.8653564453125	1159.648559570312	-1502.119750976562	205.14111328125	250.3353424072267	-2327.59814453125	50.08165740966797	1159.460083007812	-1210.535888671875	0.03217269852757454	0.01210610009729862	-0.01785949990153313	0.07656779885292053	0.07400870323181152	-0.07423809915781021	0.03550919890403748	0.00899782031774521	-0.01585420034825802	0.03247589990496635	1.984009981155396	-2.100239992141724	2.032569885253906	3.000639915466309	-1.797829985618591	2.838190078735352	0	0	
